<?xml version="1.0" encoding="utf-8"?>
<!-- Generator: Adobe Illustrator 16.0.0, SVG Export Plug-In . SVG Version: 6.00 Build 0)  -->
<!DOCTYPE svg PUBLIC "-//W3C//DTD SVG 1.1//EN" "http://www.w3.org/Graphics/SVG/1.1/DTD/svg11.dtd">
<svg version="1.1" id="Layer_1" xmlns="http://www.w3.org/2000/svg" xmlns:xlink="http://www.w3.org/1999/xlink" x="0px" y="0px"
	 width="512px" height="512px" viewBox="0 0 512 512" enable-background="new 0 0 512 512" xml:space="preserve">
<path d="M48.375,181.063c0,55.563,21.656,107.813,61,147.125l-33.938,33.938C27.031,313.75,0.375,249.438,0.375,181.063
	s26.625-132.688,75-181L109.313,34C70,73.25,48.375,125.5,48.375,181.063z M182.813,107.5l-33.938-33.938
	c-28.688,28.75-44.5,66.938-44.5,107.5c0,40.625,15.813,78.813,44.563,107.5l33.938-33.938c-19.688-19.625-30.5-45.75-30.5-73.563
	C152.375,153.313,163.188,127.188,182.813,107.5z M437.313,0l-33.938,33.938c39.344,39.313,61,91.563,61,147.125
	s-21.625,107.813-60.906,147.125l33.938,33.938c48.344-48.375,74.969-112.688,74.969-181.063
	C512.375,112.625,485.719,48.313,437.313,0z M256.375,133.063c-26.5,0-48,21.5-48,48c0,17.75,9.719,33.063,24,41.344V512h48V222.438
	c14.281-8.313,24-23.625,24-41.375C304.375,154.563,282.906,133.063,256.375,133.063z M363.813,73.563L329.875,107.5
	c19.656,19.688,30.5,45.813,30.5,73.563c0,27.813-10.813,53.938-30.438,73.563l33.938,33.938c28.688-28.688,44.5-66.875,44.5-107.5
	S392.563,102.313,363.813,73.563z"/>
</svg>
